HIERARCHY
ROOT ui
{
	 OFFSET 0 0 0
	 CHANNELS 3 XPosition YPosition Z Position
	 EndSite
	 {
	 OFFSET 0 -1 0
	 }
}
ROOT li
{
	 OFFSET 0 0 0
	 CHANNELS 3 XPosition YPosition Z Position
	 EndSite
	 {
	 OFFSET 0 -1 0
	 }
}
ROOT ul
{
	 OFFSET 0 0 0
	 CHANNELS 3 XPosition YPosition Z Position
	 EndSite
	 {
	 OFFSET 0 -1 0
	 }
}
ROOT ll
{
	 OFFSET 0 0 0
	 CHANNELS 3 XPosition YPosition Z Position
	 EndSite
	 {
	 OFFSET 0 -1 0
	 }
}
ROOT tt
{
	 OFFSET 0 0 0
	 CHANNELS 3 XPosition YPosition Z Position
	 EndSite
	 {
	 OFFSET 0 -1 0
	 }
}
ROOT tb
{
	 OFFSET 0 0 0
	 CHANNELS 3 XPosition YPosition Z Position
	 EndSite
	 {
	 OFFSET 0 -1 0
	 }
}
ROOT td
{
	 OFFSET 0 0 0
	 CHANNELS 3 XPosition YPosition Z Position
	 EndSite
	 {
	 OFFSET 0 -1 0
	 }
}
ROOT v
{
	 OFFSET 0 0 0
	 CHANNELS 3 XPosition YPosition Z Position
	 EndSite
	 {
	 OFFSET 0 -1 0
	 }
}
ROOT bn
{
	 OFFSET 0 0 0
	 CHANNELS 3 XPosition YPosition Z Position
	 EndSite
	 {
	 OFFSET 0 -1 0
	 }
}
MOTION
Frames: 13
Frame Time: 0.002
0.03010315704345703	0.0037368779182434084	0		0.5298180541992188	-2.395460693359375	0		-0.8710587768554687	0.28569281005859376	0		-0.5919275512695312	-2.597685302734375	0		1.5772152099609376	-0.4566524963378906	0		3.17126904296875	0.15529641723632812	0		4.4731962890625	0.19631446838378908	0		5.9777958984375	0.5568037109375	0		-0.11104555511474609	5.9431552734375	0		
-0.045861503601074216	-0.001972880005836487	0		0.474924560546875	-2.391565185546875	0		-0.9469583129882813	0.28302108764648437	0		-0.5718768310546875	-2.597069091796875	0		1.5683973388671875	-0.4536158447265625	0		3.142232666015625	0.1446211700439453	0		4.464388671875	0.19822755432128905	0		5.96482763671875	0.548724853515625	0		-0.11064442443847657	5.94310498046875	0		
0.027312700271606444	-3.307270109653473E-4	0		0.47231436157226564	-2.3715986328125	0		-0.8748255004882812	0.2817183837890625	0		-0.5698155517578125	-2.5951455078125	0		1.5685113525390626	-0.45374432373046875	0		3.15212109375	0.13025296020507812	0		4.4532646484375	0.1831778564453125	0		5.97012353515625	0.556326171875	0		-0.11026821899414062	5.94304541015625	0		
-0.04562196731567383	-0.002108150005340576	0		0.48481011962890624	-2.400918701171875	0		-0.9308050537109375	0.2766748046875	0		-0.5667402954101562	-2.591251708984375	0		1.574492919921875	-0.45998678588867187	0		3.168017578125	0.11777107238769531	0		4.4541123046875	0.1679117431640625	0		5.9702529296875	0.5560155639648438	0		-0.24233216857910156	5.92132568359375	0		
0.02749304389953613	-4.940100014209747E-4	0		0.5127870483398438	-2.4015224609375	0		-0.9366311645507812	0.28173016357421876	0		-0.6275070190429688	-2.576231689453125	0		1.5837430419921874	-0.44929550170898436	0		3.15309765625	0.11783080291748046	0		4.44935302734375	0.17674266052246093	0		5.97034716796875	0.5557008056640625	0		-0.22683882141113282	5.9319794921875	0		
-0.04637281036376953	0.005726755142211914	0		0.45143798828125	-2.361539306640625	0		-0.9414976196289062	0.28675439453125	0		-0.5675069580078125	-2.57337939453125	0		1.580688720703125	-0.4533983154296875	0		3.18275537109375	0.09608368682861328	0		4.4572666015625	0.16933840942382813	0		5.9652587890625	0.5474728393554688	0		-0.10840975189208985	5.94078076171875	0		
0.03244271469116211	-0.004795476913452148	0		0.47525155639648436	-2.367095458984375	0		-0.8705100708007812	0.28540496826171874	0		-0.6025481567382812	-2.569845947265625	0		1.574770263671875	-0.4474588623046875	0		3.197745361328125	0.09559268951416015	0		4.45313671875	0.16214413452148438	0		5.97840771484375	0.5549196166992187	0		-0.10917823791503906	5.94268994140625	0		
-0.050493568420410154	0.0025637900829315187	0		0.4471229858398437	-2.366735107421875	0		-0.9415464477539063	0.28657916259765626	0		-0.58943896484375	-2.55618798828125	0		1.5916243896484374	-0.4519398193359375	0		3.16051806640625	0.08602834320068359	0		4.44897802734375	0.15594735717773436	0		5.9745126953125	0.5626715087890625	0		-0.10904419708251953	5.9425673828125	0		
0.023302223205566405	-0.003904036045074463	0		0.44898687744140625	-2.36492626953125	0		-0.978634765625	0.287129150390625	0		-0.6544261474609375	-2.545147216796875	0		1.5835457763671874	-0.4499846496582031	0		3.16529150390625	0.0787057876586914	0		4.4544482421875	0.13157199096679686	0		5.97442626953125	0.56235546875	0		-0.22618789672851564	5.93153125	0		
-0.04177865982055664	1.0542800277471543E-4	0		0.4912880859375	-2.392864501953125	0		-0.9236555786132813	0.2930066223144531	0		-0.6037354125976563	-2.551204345703125	0		1.5895137939453126	-0.44329263305664063	0		3.18796484375	0.06805399322509766	0		4.454306640625	0.1312986755371094	0		5.97843896484375	0.5699696044921875	0		-0.21102015686035155	5.94010791015625	0		
0.03009945487976074	0.002634834051132202	0		0.4536716003417969	-2.35837158203125	0		-0.928758544921875	0.2969412841796875	0		-0.64976806640625	-2.539539794921875	0		1.5893218994140625	-0.44350238037109374	0		3.178803466796875	0.06897107696533203	0		4.45716259765625	0.13297186279296874	0		5.98212451171875	0.561593017578125	0		-0.0948390655517578	5.95184765625	0		
-0.0560618782043457	0.005990839958190918	0		0.47629052734375	-2.365985107421875	0		-0.8711724853515626	0.28472128295898436	0		-0.5930316162109375	-2.540748291015625	0		1.5832120361328126	-0.4376146545410156	0		3.170270263671875	0.05087185287475586	0		4.45357568359375	0.11176144409179688	0		5.973923828125	0.5614435424804688	0		-0.09494984436035156	5.95165625	0		
0.03151340293884277	-0.005804695129394531	0		0.4500926208496094	-2.3627333984375	0		-0.9423880615234375	0.2857994079589844	0		-0.6153402099609375	-2.54355615234375	0		1.58297705078125	-0.4378434448242188	0		3.17080615234375	0.03760973739624023	0		4.44922119140625	0.10457439422607422	0		5.97755517578125	0.553095703125	0		-0.10929269409179687	5.9417001953125	0		
